<?xml version="1.0" encoding="UTF-8"?>
<svg width="175px" height="64px" viewBox="0 0 175 64" version="1.1" xmlns="http://www.w3.org/2000/svg" xmlns:xlink="http://www.w3.org/1999/xlink">
    <!-- Generator: Sketch 52.6 (67491) - http://www.bohemiancoding.com/sketch -->
    <title>image (1)</title>
    <desc>Created with Sketch.</desc>
    <g id="Mounted" stroke="none" stroke-width="1" fill="none" fill-rule="evenodd">
        <g id="image-(1)" transform="translate(-14.000000, -63.000000)">
            <rect id="矩形" x="0" y="0" width="200" height="200"></rect>
            <g id="分组" transform="translate(8.000000, 64.000000)">
                <polyline id="路径" stroke="#00B140" stroke-width="0.882352941" fill-opacity="0" fill="#FFFFFF" points="89.7954629 13.6363636 89.7954629 0 179.590926 0 179.590926 62.2568165 89.7954629 62.2568165 89.7954629 48.6204529"></polyline>
                <g transform="translate(0.000000, 13.636364)" fill="#00B140">
                    <rect id="矩形" fill-opacity="0" x="0" y="0" width="179.590915" height="34.9840892"></rect>
                    <g transform="translate(6.136364, 2.045455)" fill-rule="nonzero" id="形状">
                        <g>
                            <path d="M24.9859091,1.65681818 L28.7836364,1.65681818 L28.7836364,30.5454545 L25.5109091,30.5454545 L25.5109091,6.63409091 L14.82,20.3795455 L3.95181818,6.63409091 L3.95181818,30.5454545 L0.679090909,30.5454545 L0.679090909,1.65681818 L4.47681818,1.65681818 L14.82,15.3613636 L24.9859091,1.65681818 Z M44.2336364,8.37954545 C47.4881818,8.37954545 50.1336364,9.47045455 52.17,11.6522727 C54.0927273,13.7477273 55.0540909,16.4090909 55.0540909,19.6363636 C55.0540909,22.8636364 54.0927273,25.525 52.17,27.6204545 C50.1336364,29.8022727 47.4881818,30.8931818 44.2336364,30.8931818 C40.9745455,30.8931818 38.3268182,29.8022727 36.2904545,27.6204545 C34.3677273,25.525 33.4063636,22.8636364 33.4063636,19.6363636 C33.4063636,16.4090909 34.3677273,13.7477273 36.2904545,11.6522727 C38.3268182,9.47045455 40.9745455,8.37954545 44.2336364,8.37954545 Z M44.2336364,27.9272727 C46.5881818,27.9272727 48.4495455,27.1136364 49.8177273,25.4863636 C51.1268182,23.9409091 51.7813636,21.9909091 51.7813636,19.6363636 C51.7813636,17.2818182 51.1268182,15.3318182 49.8177273,13.7863636 C48.4495455,12.1590909 46.5881818,11.3454545 44.2336364,11.3454545 C41.8745455,11.3454545 40.0109091,12.1590909 38.6427273,13.7863636 C37.3336364,15.3318182 36.6790909,17.2818182 36.6790909,19.6363636 C36.6790909,21.9909091 37.3336364,23.9409091 38.6427273,25.4863636 C40.0109091,27.1136364 41.8745455,27.9272727 44.2336364,27.9272727 Z M78.3995455,30.5454545 L75.1268182,30.5454545 L75.1268182,27.1431818 C74.3404545,28.1886364 73.3790909,29.075 72.2427273,29.8022727 C71.1109091,30.5295455 69.8177273,30.8931818 68.3631818,30.8931818 C66.9086364,30.8931818 65.6563636,30.6909091 64.6063636,30.2863636 C63.5609091,29.8772727 62.645,29.2659091 61.8586364,28.4522727 C60.0540909,26.675 59.1518182,24.3318182 59.1518182,21.4227273 L59.1518182,8.72727273 L62.4245455,8.72727273 L62.4245455,21.3409091 C62.4245455,23.3454545 62.9927273,24.9454545 64.1290909,26.1409091 C65.2654545,27.3318182 66.7336364,27.9272727 68.5336364,27.9272727 C70.37,27.9272727 71.9268182,27.3159091 73.2040909,26.0931818 C74.4859091,24.8431818 75.1268182,23.2431818 75.1268182,21.2931818 L75.1268182,8.72727273 L78.3995455,8.72727273 L78.3995455,30.5454545 Z M84.0722727,8.72727273 L87.345,8.72727273 L87.345,12.1295455 C88.1313636,11.0840909 89.0904545,10.1977273 90.2222727,9.47045455 C91.3586364,8.74318182 92.6540909,8.37954545 94.1086364,8.37954545 C95.5631818,8.37954545 96.8131818,8.58181818 97.8586364,8.98636364 C98.9086364,9.39545455 99.8245455,10.0068182 100.606364,10.8204545 C102.410909,12.5977273 103.313182,14.9409091 103.313182,17.85 L103.313182,30.5454545 L100.040455,30.5454545 L100.040455,17.9318182 C100.040455,15.9272727 99.4745455,14.3272727 98.3427273,13.1318182 C97.2063636,11.9409091 95.7359091,11.3454545 93.9313636,11.3454545 C92.0995455,11.3454545 90.5427273,11.9568182 89.2609091,13.1795455 C87.9836364,14.4295455 87.345,16.0295455 87.345,17.9795455 L87.345,30.5454545 L84.0722727,30.5454545 L84.0722727,8.72727273 Z M113.874545,30.5454545 L110.601818,30.5454545 L110.601818,11.6045455 L106.149545,11.6045455 L106.149545,8.72727273 L110.601818,8.72727273 L110.601818,0.913636364 L113.874545,0.913636364 L113.874545,8.72727273 L118.892727,8.72727273 L118.892727,11.6045455 L113.874545,11.6045455 L113.874545,30.5454545 Z M131.765455,27.9272727 C134.701818,27.9272727 136.810909,26.7045455 138.092727,24.2590909 L141.672273,24.2590909 C140.913182,26.2409091 139.713182,27.8409091 138.072273,29.0590909 C136.426818,30.2818182 134.310909,30.8931818 131.724545,30.8931818 C128.433636,30.8931818 125.756364,29.8022727 123.692727,27.6204545 C121.683636,25.4977273 120.679091,22.8363636 120.679091,19.6363636 C120.679091,16.4090909 121.640455,13.7477273 123.563182,11.6522727 C125.599545,9.47045455 128.247273,8.37954545 131.506364,8.37954545 C134.760909,8.37954545 137.406364,9.47045455 139.442727,11.6522727 C141.365455,13.7477273 142.326818,16.4090909 142.326818,19.6363636 L142.326818,20.9454545 L124.040455,20.9454545 C124.272273,22.9545455 125.072273,24.6136364 126.440455,25.9227273 C127.835909,27.2590909 129.610909,27.9272727 131.765455,27.9272727 Z M131.506364,11.3454545 C129.497273,11.3454545 127.808636,11.9704545 126.440455,13.2204545 C125.163182,14.4159091 124.379091,15.9727273 124.088182,17.8909091 L138.924545,17.8909091 C138.633636,15.9727273 137.847273,14.4159091 136.565455,13.2204545 C135.197273,11.9704545 133.510909,11.3454545 131.506364,11.3454545 Z M163.360909,30.5454545 L163.360909,27.0545455 C161.615455,29.6136364 159.010909,30.8931818 155.547273,30.8931818 C152.406364,30.8931818 149.847273,29.8022727 147.87,27.6204545 C145.947273,25.4704545 144.985909,22.8090909 144.985909,19.6363636 C144.985909,16.4636364 145.947273,13.8022727 147.87,11.6522727 C149.847273,9.47045455 152.479091,8.37954545 155.765455,8.37954545 C159.051818,8.37954545 161.583636,9.67272727 163.360909,12.2590909 L163.360909,0 L166.633636,0 L166.633636,30.5454545 L163.360909,30.5454545 Z M155.983636,27.9272727 C158.338182,27.9272727 160.199545,27.1136364 161.567727,25.4863636 C162.876818,23.9409091 163.531364,21.9909091 163.531364,19.6363636 C163.531364,17.2818182 162.876818,15.3318182 161.567727,13.7863636 C160.199545,12.1590909 158.338182,11.3454545 155.983636,11.3454545 C153.656364,11.3454545 151.765455,12.1590909 150.310909,13.7863636 C148.942727,15.3318182 148.258636,17.2818182 148.258636,19.6363636 C148.258636,21.9909091 148.942727,23.9409091 150.310909,25.4863636 C151.765455,27.1136364 153.656364,27.9272727 155.983636,27.9272727 Z"></path>
                        </g>
                    </g>
                </g>
            </g>
        </g>
    </g>
</svg>